<?xml version="1.0" encoding="UTF-8" standalone="no"?>
<!DOCTYPE svg PUBLIC "-//W3C//DTD SVG 1.1//EN" "http://www.w3.org/Graphics/SVG/1.1/DTD/svg11.dtd">
<svg width="100%" height="100%" viewBox="0 0 606 606" version="1.1" xmlns="http://www.w3.org/2000/svg" xmlns:xlink="http://www.w3.org/1999/xlink" xml:space="preserve" xmlns:serif="http://www.serif.com/" style="fill-rule:evenodd;clip-rule:evenodd;stroke-linecap:round;stroke-miterlimit:11;">
    <g transform="matrix(1,0,0,1,-88.3675,-160.999)">
        <g transform="matrix(0.959068,0,0,0.980038,4.74738,3.76517)">
            <path d="M376.651,252.386C376.651,217.188 347.45,188.612 311.483,188.612L181.148,188.612C145.181,188.612 115.981,217.188 115.981,252.386L115.981,481.969C115.981,517.166 145.181,545.742 181.148,545.742L311.483,545.742C347.45,545.742 376.651,517.166 376.651,481.969L376.651,252.386Z" style="fill:rgb(235,235,235);stroke:black;stroke-width:5.16px;"/>
        </g>
        <g transform="matrix(0.959068,0,0,0.980038,304.747,203.765)">
            <path d="M376.651,252.386C376.651,217.188 347.45,188.612 311.483,188.612L181.148,188.612C145.181,188.612 115.981,217.188 115.981,252.386L115.981,481.969C115.981,517.166 145.181,545.742 181.148,545.742L311.483,545.742C347.45,545.742 376.651,517.166 376.651,481.969L376.651,252.386Z" style="fill:rgb(235,235,235);stroke:black;stroke-width:5.16px;"/>
        </g>
        <g transform="matrix(0.959068,0,0,0.420016,304.747,109.392)">
            <path d="M376.651,277.895C376.651,228.618 359.13,188.612 337.55,188.612L155.081,188.612C133.501,188.612 115.981,228.618 115.981,277.895L115.981,456.459C115.981,505.736 133.501,545.742 155.081,545.742L337.55,545.742C359.13,545.742 376.651,505.736 376.651,456.459L376.651,277.895Z" style="fill:rgb(235,235,235);stroke:black;stroke-width:6.75px;"/>
        </g>
        <g transform="matrix(0.959068,0,0,0.420016,4.74738,509.392)">
            <path d="M376.651,277.895C376.651,228.618 359.13,188.612 337.55,188.612L155.081,188.612C133.501,188.612 115.981,228.618 115.981,277.895L115.981,456.459C115.981,505.736 133.501,545.742 155.081,545.742L337.55,545.742C359.13,545.742 376.651,505.736 376.651,456.459L376.651,277.895Z" style="fill:rgb(235,235,235);stroke:black;stroke-width:6.75px;"/>
        </g>
    </g>
</svg>
